<svg xmlns="http://www.w3.org/2000/svg" viewBox="0 0 128 128">
  <defs>
    <linearGradient id="panel" x1="18" y1="16" x2="110" y2="112" gradientUnits="userSpaceOnUse">
      <stop stop-color="#17202a"/>
      <stop offset="1" stop-color="#0a0d12"/>
    </linearGradient>
    <linearGradient id="accent" x1="24" y1="22" x2="104" y2="106" gradientUnits="userSpaceOnUse">
      <stop stop-color="#62d6ff"/>
      <stop offset="0.54" stop-color="#39d98a"/>
      <stop offset="1" stop-color="#f6c85f"/>
    </linearGradient>
  </defs>
  <rect x="12" y="12" width="104" height="104" rx="24" fill="url(#panel)"/>
  <path d="M36 82V52h12v30H36Zm22 0V34h12v48H58Zm22 0V58h12v24H80Z" fill="#eaf7f8"/>
  <path d="M28 92h72" stroke="#52616d" stroke-width="8" stroke-linecap="round"/>
  <path d="M25 31c11 0 11 12 22 12s11-12 22-12 11 12 22 12c5.5 0 8.2-3 11-6" fill="none" stroke="url(#accent)" stroke-width="8" stroke-linecap="round"/>
  <circle cx="47" cy="43" r="5" fill="#62d6ff"/>
  <circle cx="69" cy="31" r="5" fill="#39d98a"/>
  <circle cx="91" cy="43" r="5" fill="#f6c85f"/>
</svg>
