<svg xmlns="http://www.w3.org/2000/svg" viewBox="0 0 128 128">
  <defs>
    <linearGradient id="panel" x1="16" y1="16" x2="112" y2="112" gradientUnits="userSpaceOnUse">
      <stop stop-color="#17c3b2"/>
      <stop offset="1" stop-color="#087e8b"/>
    </linearGradient>
  </defs>
  <rect x="10" y="10" width="108" height="108" rx="26" fill="url(#panel)"/>
  <path d="M31 88h66" stroke="#0b2730" stroke-width="10" stroke-linecap="round" opacity=".42"/>
  <path d="M36 82V52h13v30H36Zm22 0V33h13v49H58Zm22 0V59h13v23H80Z" fill="#ffffff"/>
  <path d="M27 33c10 0 10 12 21 12s11-12 22-12 11 12 22 12c5 0 8-3 10-6" fill="none" stroke="#fff3b0" stroke-width="9" stroke-linecap="round"/>
  <circle cx="48" cy="45" r="5.5" fill="#ffffff"/>
  <circle cx="70" cy="33" r="5.5" fill="#ffffff"/>
  <circle cx="92" cy="45" r="5.5" fill="#ffffff"/>
</svg>
